<svg width="64" height="64" viewBox="0 0 64 64" xmlns="http://www.w3.org/2000/svg">
    <circle cx="32" cy="32" r="28" fill="#4CAF50" stroke="#388E3C" stroke-width="4"/>
    <path d="M32 12C20.954 12 12 20.954 12 32s8.954 20 20 20 20-8.954 20-20S43.046 12 32 12zm0 34c-7.732 0-14-6.268-14-14s6.268-14 14-14 14 6.268 14 14-6.268 14-14 14z" fill="#fff"/>
    <path d="M32 24c-4.418 0-8 3.582-8 8s3.582 8 8 8 8-3.582 8-8-3.582-8-8-8zm0 12c-2.211 0-4-1.789-4-4s1.789-4 4-4 4 1.789 4 4-1.789 4-4 4z" fill="#388E3C"/>
    <path d="M25 7l-2 6-6 2 6 2 2 6 2-6 6-2-6-2-2-6zM37 7l-2 6-6 2 6 2 2 6 2-6 6-2-6-2-2-6zM25 49l-2-6-6-2 6-2 2-6 2 6 6 2-6 2-2 6zM37 49l-2-6-6-2 6-2 2-6 2 6 6 2-6 2-2 6z" fill="#fff"/>
</svg>